<svg width="113" height="120" viewBox="0 0 113 120" fill="none" xmlns="http://www.w3.org/2000/svg">
    <mask id="path-1-inside-1_0_1" fill="white">
        <path d="M66.1172 115.747C66.1727 107.084 64.5242 98.4957 61.2658 90.4715C58.0074 82.4474 53.2029 75.1448 47.1267 68.9806C41.0505 62.8165 33.8215 57.9117 25.8525 54.546C17.8836 51.1804 9.33065 49.42 0.682127 49.3653L0.259803 115.33L66.1172 115.747Z"/>
    </mask>
    <path d="M66.1172 115.747C66.1727 107.084 64.5242 98.4957 61.2658 90.4715C58.0074 82.4474 53.2029 75.1448 47.1267 68.9806C41.0505 62.8165 33.8215 57.9117 25.8525 54.546C17.8836 51.1804 9.33065 49.42 0.682127 49.3653L0.259803 115.33L66.1172 115.747Z" fill="#FF4F14" stroke="#FF4F14" stroke-width="10" mask="url(#path-1-inside-1_0_1)"/>
    <mask id="path-2-inside-2_0_1" fill="white">
        <path d="M56.8969 115.689C56.9446 108.239 55.5269 100.853 52.7247 93.9518C49.9224 87.051 45.7906 80.7707 40.5651 75.4696C35.3395 70.1685 29.1226 65.9503 22.2693 63.0558C15.416 60.1614 8.06048 58.6474 0.622748 58.6004L0.259549 115.33L56.8969 115.689Z"/>
    </mask>
    <path d="M56.8969 115.689C56.9446 108.239 55.5269 100.853 52.7247 93.9518C49.9224 87.051 45.7906 80.7707 40.5651 75.4696C35.3395 70.1685 29.1226 65.9503 22.2693 63.0558C15.416 60.1614 8.06048 58.6474 0.622748 58.6004L0.259549 115.33L56.8969 115.689Z" fill="#FFCEBE" stroke="#FF4F14" stroke-width="2" mask="url(#path-2-inside-2_0_1)"/>
    <mask id="path-3-inside-3_0_1" fill="white">
        <path d="M112.318 70.0562C103.669 70.0014 95.1164 68.241 87.1475 64.8754C79.1785 61.5098 71.9495 56.6049 65.8733 50.4408C59.7971 44.2767 54.9926 36.9741 51.7342 28.9499C48.4758 20.9257 46.8273 12.3371 46.8828 3.67449L112.74 4.09124L112.318 70.0562Z"/>
    </mask>
    <path d="M112.318 70.0562C103.669 70.0014 95.1164 68.241 87.1475 64.8754C79.1785 61.5098 71.9495 56.6049 65.8733 50.4408C59.7971 44.2767 54.9926 36.9741 51.7342 28.9499C48.4758 20.9257 46.8273 12.3371 46.8828 3.67449L112.74 4.09124L112.318 70.0562Z" fill="#FF4F14" stroke="#FF4F14" stroke-width="10" mask="url(#path-3-inside-3_0_1)"/>
    <mask id="path-4-inside-4_0_1" fill="white">
        <path d="M112.377 60.8211C104.939 60.7741 97.5838 59.2601 90.7305 56.3657C83.8772 53.4712 77.6603 49.253 72.4348 43.9519C67.2092 38.6508 63.0774 32.3705 60.2751 25.4697C57.4729 18.5689 56.0552 11.1827 56.1029 3.73287L112.74 4.09128L112.377 60.8211Z"/>
    </mask>
    <path d="M112.377 60.8211C104.939 60.7741 97.5838 59.2601 90.7305 56.3657C83.8772 53.4712 77.6603 49.253 72.4348 43.9519C67.2092 38.6508 63.0774 32.3705 60.2751 25.4697C57.4729 18.5689 56.0552 11.1827 56.1029 3.73287L112.74 4.09128L112.377 60.8211Z" fill="#FFCEBE" stroke="#FF4F14" stroke-width="2" mask="url(#path-4-inside-4_0_1)"/>
    <path d="M81.7332 119.111L18.1499 12.3555L30.804 -0.158919L95.3246 105.67L81.7332 119.111Z" fill="#FF4F14"/>
    <ellipse cx="7.9098" cy="7.90921" rx="7.9098" ry="7.90921" transform="matrix(0.71102 -0.703172 0.702011 0.712166 7.02409 77.1233)" fill="#FF4F14"/>
    <ellipse cx="7.25065" cy="7.25011" rx="7.25065" ry="7.25011" transform="matrix(0.71102 -0.703172 0.702011 0.712166 2.23004 98.5502)" fill="#FF4F14"/>
    <ellipse cx="7.9098" cy="7.90921" rx="7.9098" ry="7.90921" transform="matrix(0.71102 -0.703172 0.702011 0.712166 27.3829 97.7764)" fill="#FF4F14"/>
    <path d="M77.0028 11.625C80.0693 14.7358 80.0372 19.7478 76.9311 22.8196C73.8251 25.8914 68.8212 25.8597 65.7547 22.7489C62.6883 19.638 62.7204 14.626 65.8264 11.5543C68.9325 8.48248 73.9363 8.51415 77.0028 11.625Z" fill="#FF4F14"/>
    <ellipse cx="7.25065" cy="7.25011" rx="7.25065" ry="7.25011" transform="matrix(0.71102 -0.703172 0.702011 0.712166 91.1575 29.1437)" fill="#FF4F14"/>
    <ellipse cx="7.9098" cy="7.90921" rx="7.9098" ry="7.90921" transform="matrix(0.71102 -0.703172 0.702011 0.712166 71.5453 37.4159)" fill="#FF4F14"/>
</svg>
