<svg width="199" height="31" viewBox="0 0 199 31" fill="none" xmlns="http://www.w3.org/2000/svg">
    <path d="M23.1113 26.1594L23.1132 0.23938L44.1192 0.240729L44.1173 26.1607L39.7793 26.1605L39.7809 4.30845L27.4509 4.30766L27.4493 26.1597L23.1113 26.1594Z" fill="#FF4F14"/>
    <path d="M47.0021 26.1609L54.1128 16.3334L47.1475 6.72092L52.2595 6.72125L56.6331 12.9315L60.9355 6.72181L66.0475 6.72214L59.0808 16.3337L66.2261 26.1622L61.1141 26.1618L56.6325 19.7355L52.1141 26.1612L47.0021 26.1609Z" fill="#FF4F14"/>
    <path d="M69.0597 26.1623L69.0611 6.72233L85.9451 6.72342L85.9437 26.1634L81.6057 26.1631L81.6068 10.7911L73.3988 10.7906L73.3977 26.1626L69.0597 26.1623Z" fill="#FF4F14"/>
    <path d="M107.847 6.72482L107.846 26.1648L103.688 26.1646L103.689 13.4746L94.436 26.164L90.962 26.1637L90.9635 6.72374L95.1215 6.72401L95.1205 19.09L104.409 6.7246L107.847 6.72482Z" fill="#FF4F14"/>
    <path d="M129.172 30.2522L129.172 26.1662L112.864 26.1651L112.866 6.72515L117.204 6.72542L117.203 22.0974L125.411 22.098L125.412 6.72595L129.75 6.72623L129.749 22.3142L133.511 22.3145L133.51 30.2525L129.172 30.2522Z" fill="#FF4F14"/>
    <path d="M152.656 30.2537L152.657 26.1677L136.349 26.1667L136.35 6.72665L140.688 6.72693L140.687 22.0989L148.895 22.0995L148.896 6.72746L153.234 6.72774L153.233 22.3157L156.995 22.316L156.994 30.254L152.656 30.2537Z" fill="#FF4F14"/>
    <path d="M165.305 26.7085C163.901 26.7084 162.713 26.4443 161.741 25.9163C160.769 25.3762 160.031 24.6622 159.527 23.7741C159.035 22.8861 158.789 21.9081 158.789 20.8401C158.79 19.9041 158.946 19.0641 159.258 18.3201C159.57 17.5641 160.05 16.9162 160.698 16.3762C161.346 15.8243 162.186 15.3743 163.218 15.0264C163.998 14.7744 164.91 14.5465 165.954 14.3426C167.01 14.1386 168.15 13.9527 169.374 13.7848C170.61 13.6049 171.9 13.4129 173.244 13.209L171.696 14.0909C171.708 12.7469 171.408 11.7569 170.796 11.1209C170.184 10.4848 169.152 10.1668 167.7 10.1667C166.824 10.1666 165.978 10.3706 165.162 10.7785C164.346 11.1865 163.776 11.8884 163.452 12.8844L159.492 11.6421C159.972 9.99817 160.884 8.67823 162.228 7.68232C163.585 6.6864 165.409 6.18852 167.701 6.18867C169.429 6.18878 170.947 6.47088 172.255 7.03496C173.574 7.59905 174.552 8.52311 175.188 9.80715C175.536 10.4912 175.746 11.1932 175.818 11.9132C175.89 12.6212 175.926 13.3952 175.926 14.2352L175.925 26.1692L172.127 26.169L172.127 21.957L172.757 22.641C171.881 24.0449 170.855 25.0769 169.679 25.7368C168.515 26.3847 167.057 26.7086 165.305 26.7085ZM166.169 23.2526C167.153 23.2526 167.993 23.0787 168.689 22.7307C169.385 22.3828 169.937 21.9568 170.345 21.4528C170.765 20.9489 171.048 20.4749 171.192 20.0309C171.42 19.4789 171.546 18.8489 171.57 18.1409C171.606 17.4209 171.624 16.8389 171.624 16.3949L172.956 16.791C171.648 16.9949 170.526 17.1749 169.59 17.3308C168.654 17.4867 167.85 17.6367 167.178 17.7806C166.506 17.9126 165.912 18.0626 165.396 18.2305C164.892 18.4105 164.466 18.6205 164.118 18.8604C163.77 19.1004 163.5 19.3764 163.308 19.6884C163.128 20.0004 163.038 20.3664 163.037 20.7864C163.037 21.2664 163.157 21.6924 163.397 22.0644C163.637 22.4244 163.985 22.7124 164.441 22.9285C164.909 23.1445 165.485 23.2525 166.169 23.2526Z" fill="#FF4F14"/>
    <path d="M9.92872 26.0194L0.240234 16.3295L9.93017 6.64094L12.9578 9.64882L6.05376 16.3299L12.9568 23.0119L9.92872 26.0194Z" fill="#FF4F14"/>
    <path d="M188.971 26.019L185.963 23.0111L192.847 16.3301L185.964 9.64812L188.972 6.64062L198.681 16.3304L188.971 26.019Z" fill="#FF4F14"/>
</svg>
